<?xml version="1.0" encoding="UTF-8"?>
<svg xmlns="http://www.w3.org/2000/svg" xmlns:xlink="http://www.w3.org/1999/xlink" width="800pt" height="200pt" viewBox="0 0 800 200" version="1.1">
<g id="surface71">
<rect x="0" y="0" width="800" height="200" style="fill:rgb(0%,0%,0%);fill-opacity:1;stroke:none;"/>
<path style=" stroke:none;fill-rule:nonzero;fill:rgb(80%,80%,80%);fill-opacity:1;" d="M 0 50 L 0 0 L 44.445312 0 L 44.445312 50 Z M 0 50 "/>
<path style=" stroke:none;fill-rule:nonzero;fill:rgb(89.803922%,89.803922%,89.803922%);fill-opacity:1;" d="M 44.445312 50 L 44.445312 0 L 88.890625 0 L 88.890625 50 Z M 44.445312 50 "/>
<path style=" stroke:none;fill-rule:nonzero;fill:rgb(80%,80%,80%);fill-opacity:1;" d="M 88.890625 50 L 88.890625 0 L 133.332031 0 L 133.332031 50 Z M 88.890625 50 "/>
<path style=" stroke:none;fill-rule:nonzero;fill:rgb(89.803922%,89.803922%,89.803922%);fill-opacity:1;" d="M 133.332031 50 L 133.332031 0 L 177.777344 0 L 177.777344 50 Z M 133.332031 50 "/>
<path style=" stroke:none;fill-rule:nonzero;fill:rgb(80%,80%,80%);fill-opacity:1;" d="M 177.777344 50 L 177.777344 0 L 222.222656 0 L 222.222656 50 Z M 177.777344 50 "/>
<path style=" stroke:none;fill-rule:nonzero;fill:rgb(89.803922%,89.803922%,89.803922%);fill-opacity:1;" d="M 222.222656 50 L 222.222656 0 L 266.667969 0 L 266.667969 50 Z M 222.222656 50 "/>
<path style=" stroke:none;fill-rule:nonzero;fill:rgb(80%,80%,80%);fill-opacity:1;" d="M 266.667969 50 L 266.667969 0 L 311.109375 0 L 311.109375 50 Z M 266.667969 50 "/>
<path style=" stroke:none;fill-rule:nonzero;fill:rgb(89.803922%,89.803922%,89.803922%);fill-opacity:1;" d="M 311.109375 50 L 311.109375 0 L 355.554688 0 L 355.554688 50 Z M 311.109375 50 "/>
<path style=" stroke:none;fill-rule:nonzero;fill:rgb(80%,80%,80%);fill-opacity:1;" d="M 355.554688 50 L 355.554688 0 L 400 0 L 400 50 Z M 355.554688 50 "/>
<path style=" stroke:none;fill-rule:nonzero;fill:rgb(89.803922%,89.803922%,89.803922%);fill-opacity:1;" d="M 400 50 L 400 0 L 444.445312 0 L 444.445312 50 Z M 400 50 "/>
<path style=" stroke:none;fill-rule:nonzero;fill:rgb(80%,80%,80%);fill-opacity:1;" d="M 444.445312 50 L 444.445312 0 L 488.890625 0 L 488.890625 50 Z M 444.445312 50 "/>
<path style=" stroke:none;fill-rule:nonzero;fill:rgb(89.803922%,89.803922%,89.803922%);fill-opacity:1;" d="M 488.890625 50 L 488.890625 0 L 533.332031 0 L 533.332031 50 Z M 488.890625 50 "/>
<path style=" stroke:none;fill-rule:nonzero;fill:rgb(80%,80%,80%);fill-opacity:1;" d="M 533.332031 50 L 533.332031 0 L 577.777344 0 L 577.777344 50 Z M 533.332031 50 "/>
<path style=" stroke:none;fill-rule:nonzero;fill:rgb(89.803922%,89.803922%,89.803922%);fill-opacity:1;" d="M 577.777344 50 L 577.777344 0 L 622.222656 0 L 622.222656 50 Z M 577.777344 50 "/>
<path style=" stroke:none;fill-rule:nonzero;fill:rgb(80%,80%,80%);fill-opacity:1;" d="M 622.222656 50 L 622.222656 0 L 666.667969 0 L 666.667969 50 Z M 622.222656 50 "/>
<path style=" stroke:none;fill-rule:nonzero;fill:rgb(89.803922%,89.803922%,89.803922%);fill-opacity:1;" d="M 666.667969 50 L 666.667969 0 L 711.109375 0 L 711.109375 50 Z M 666.667969 50 "/>
<path style=" stroke:none;fill-rule:nonzero;fill:rgb(80%,80%,80%);fill-opacity:1;" d="M 711.109375 50 L 711.109375 0 L 755.554688 0 L 755.554688 50 Z M 711.109375 50 "/>
<path style=" stroke:none;fill-rule:nonzero;fill:rgb(89.803922%,89.803922%,89.803922%);fill-opacity:1;" d="M 755.554688 50 L 755.554688 0 L 800 0 L 800 50 Z M 755.554688 50 "/>
<path style=" stroke:none;fill-rule:nonzero;fill:rgb(89.803922%,89.803922%,89.803922%);fill-opacity:1;" d="M 0 100 L 0 50 L 44.445312 50 L 44.445312 100 Z M 0 100 "/>
<path style=" stroke:none;fill-rule:nonzero;fill:rgb(80%,80%,80%);fill-opacity:1;" d="M 44.445312 100 L 44.445312 50 L 88.890625 50 L 88.890625 100 Z M 44.445312 100 "/>
<path style=" stroke:none;fill-rule:nonzero;fill:rgb(89.803922%,89.803922%,89.803922%);fill-opacity:1;" d="M 88.890625 100 L 88.890625 50 L 133.332031 50 L 133.332031 100 Z M 88.890625 100 "/>
<path style=" stroke:none;fill-rule:nonzero;fill:rgb(80%,80%,80%);fill-opacity:1;" d="M 133.332031 100 L 133.332031 50 L 177.777344 50 L 177.777344 100 Z M 133.332031 100 "/>
<path style=" stroke:none;fill-rule:nonzero;fill:rgb(89.803922%,89.803922%,89.803922%);fill-opacity:1;" d="M 177.777344 100 L 177.777344 50 L 222.222656 50 L 222.222656 100 Z M 177.777344 100 "/>
<path style=" stroke:none;fill-rule:nonzero;fill:rgb(80%,80%,80%);fill-opacity:1;" d="M 222.222656 100 L 222.222656 50 L 266.667969 50 L 266.667969 100 Z M 222.222656 100 "/>
<path style=" stroke:none;fill-rule:nonzero;fill:rgb(89.803922%,89.803922%,89.803922%);fill-opacity:1;" d="M 266.667969 100 L 266.667969 50 L 311.109375 50 L 311.109375 100 Z M 266.667969 100 "/>
<path style=" stroke:none;fill-rule:nonzero;fill:rgb(80%,80%,80%);fill-opacity:1;" d="M 311.109375 100 L 311.109375 50 L 355.554688 50 L 355.554688 100 Z M 311.109375 100 "/>
<path style=" stroke:none;fill-rule:nonzero;fill:rgb(89.803922%,89.803922%,89.803922%);fill-opacity:1;" d="M 355.554688 100 L 355.554688 50 L 400 50 L 400 100 Z M 355.554688 100 "/>
<path style=" stroke:none;fill-rule:nonzero;fill:rgb(80%,80%,80%);fill-opacity:1;" d="M 400 100 L 400 50 L 444.445312 50 L 444.445312 100 Z M 400 100 "/>
<path style=" stroke:none;fill-rule:nonzero;fill:rgb(89.803922%,89.803922%,89.803922%);fill-opacity:1;" d="M 444.445312 100 L 444.445312 50 L 488.890625 50 L 488.890625 100 Z M 444.445312 100 "/>
<path style=" stroke:none;fill-rule:nonzero;fill:rgb(80%,80%,80%);fill-opacity:1;" d="M 488.890625 100 L 488.890625 50 L 533.332031 50 L 533.332031 100 Z M 488.890625 100 "/>
<path style=" stroke:none;fill-rule:nonzero;fill:rgb(89.803922%,89.803922%,89.803922%);fill-opacity:1;" d="M 533.332031 100 L 533.332031 50 L 577.777344 50 L 577.777344 100 Z M 533.332031 100 "/>
<path style=" stroke:none;fill-rule:nonzero;fill:rgb(80%,80%,80%);fill-opacity:1;" d="M 577.777344 100 L 577.777344 50 L 622.222656 50 L 622.222656 100 Z M 577.777344 100 "/>
<path style=" stroke:none;fill-rule:nonzero;fill:rgb(89.803922%,89.803922%,89.803922%);fill-opacity:1;" d="M 622.222656 100 L 622.222656 50 L 666.667969 50 L 666.667969 100 Z M 622.222656 100 "/>
<path style=" stroke:none;fill-rule:nonzero;fill:rgb(80%,80%,80%);fill-opacity:1;" d="M 666.667969 100 L 666.667969 50 L 711.109375 50 L 711.109375 100 Z M 666.667969 100 "/>
<path style=" stroke:none;fill-rule:nonzero;fill:rgb(89.803922%,89.803922%,89.803922%);fill-opacity:1;" d="M 711.109375 100 L 711.109375 50 L 755.554688 50 L 755.554688 100 Z M 711.109375 100 "/>
<path style=" stroke:none;fill-rule:nonzero;fill:rgb(80%,80%,80%);fill-opacity:1;" d="M 755.554688 100 L 755.554688 50 L 800 50 L 800 100 Z M 755.554688 100 "/>
<path style=" stroke:none;fill-rule:nonzero;fill:rgb(80%,80%,80%);fill-opacity:1;" d="M 0 150 L 0 100 L 44.445312 100 L 44.445312 150 Z M 0 150 "/>
<path style=" stroke:none;fill-rule:nonzero;fill:rgb(89.803922%,89.803922%,89.803922%);fill-opacity:1;" d="M 44.445312 150 L 44.445312 100 L 88.890625 100 L 88.890625 150 Z M 44.445312 150 "/>
<path style=" stroke:none;fill-rule:nonzero;fill:rgb(80%,80%,80%);fill-opacity:1;" d="M 88.890625 150 L 88.890625 100 L 133.332031 100 L 133.332031 150 Z M 88.890625 150 "/>
<path style=" stroke:none;fill-rule:nonzero;fill:rgb(89.803922%,89.803922%,89.803922%);fill-opacity:1;" d="M 133.332031 150 L 133.332031 100 L 177.777344 100 L 177.777344 150 Z M 133.332031 150 "/>
<path style=" stroke:none;fill-rule:nonzero;fill:rgb(80%,80%,80%);fill-opacity:1;" d="M 177.777344 150 L 177.777344 100 L 222.222656 100 L 222.222656 150 Z M 177.777344 150 "/>
<path style=" stroke:none;fill-rule:nonzero;fill:rgb(89.803922%,89.803922%,89.803922%);fill-opacity:1;" d="M 222.222656 150 L 222.222656 100 L 266.667969 100 L 266.667969 150 Z M 222.222656 150 "/>
<path style=" stroke:none;fill-rule:nonzero;fill:rgb(80%,80%,80%);fill-opacity:1;" d="M 266.667969 150 L 266.667969 100 L 311.109375 100 L 311.109375 150 Z M 266.667969 150 "/>
<path style=" stroke:none;fill-rule:nonzero;fill:rgb(89.803922%,89.803922%,89.803922%);fill-opacity:1;" d="M 311.109375 150 L 311.109375 100 L 355.554688 100 L 355.554688 150 Z M 311.109375 150 "/>
<path style=" stroke:none;fill-rule:nonzero;fill:rgb(80%,80%,80%);fill-opacity:1;" d="M 355.554688 150 L 355.554688 100 L 400 100 L 400 150 Z M 355.554688 150 "/>
<path style=" stroke:none;fill-rule:nonzero;fill:rgb(89.803922%,89.803922%,89.803922%);fill-opacity:1;" d="M 400 150 L 400 100 L 444.445312 100 L 444.445312 150 Z M 400 150 "/>
<path style=" stroke:none;fill-rule:nonzero;fill:rgb(80%,80%,80%);fill-opacity:1;" d="M 444.445312 150 L 444.445312 100 L 488.890625 100 L 488.890625 150 Z M 444.445312 150 "/>
<path style=" stroke:none;fill-rule:nonzero;fill:rgb(89.803922%,89.803922%,89.803922%);fill-opacity:1;" d="M 488.890625 150 L 488.890625 100 L 533.332031 100 L 533.332031 150 Z M 488.890625 150 "/>
<path style=" stroke:none;fill-rule:nonzero;fill:rgb(80%,80%,80%);fill-opacity:1;" d="M 533.332031 150 L 533.332031 100 L 577.777344 100 L 577.777344 150 Z M 533.332031 150 "/>
<path style=" stroke:none;fill-rule:nonzero;fill:rgb(89.803922%,89.803922%,89.803922%);fill-opacity:1;" d="M 577.777344 150 L 577.777344 100 L 622.222656 100 L 622.222656 150 Z M 577.777344 150 "/>
<path style=" stroke:none;fill-rule:nonzero;fill:rgb(80%,80%,80%);fill-opacity:1;" d="M 622.222656 150 L 622.222656 100 L 666.667969 100 L 666.667969 150 Z M 622.222656 150 "/>
<path style=" stroke:none;fill-rule:nonzero;fill:rgb(89.803922%,89.803922%,89.803922%);fill-opacity:1;" d="M 666.667969 150 L 666.667969 100 L 711.109375 100 L 711.109375 150 Z M 666.667969 150 "/>
<path style=" stroke:none;fill-rule:nonzero;fill:rgb(80%,80%,80%);fill-opacity:1;" d="M 711.109375 150 L 711.109375 100 L 755.554688 100 L 755.554688 150 Z M 711.109375 150 "/>
<path style=" stroke:none;fill-rule:nonzero;fill:rgb(89.803922%,89.803922%,89.803922%);fill-opacity:1;" d="M 755.554688 150 L 755.554688 100 L 800 100 L 800 150 Z M 755.554688 150 "/>
<path style=" stroke:none;fill-rule:nonzero;fill:rgb(89.803922%,89.803922%,89.803922%);fill-opacity:1;" d="M 0 200 L 0 150 L 44.445312 150 L 44.445312 200 Z M 0 200 "/>
<path style=" stroke:none;fill-rule:nonzero;fill:rgb(80%,80%,80%);fill-opacity:1;" d="M 44.445312 200 L 44.445312 150 L 88.890625 150 L 88.890625 200 Z M 44.445312 200 "/>
<path style=" stroke:none;fill-rule:nonzero;fill:rgb(89.803922%,89.803922%,89.803922%);fill-opacity:1;" d="M 88.890625 200 L 88.890625 150 L 133.332031 150 L 133.332031 200 Z M 88.890625 200 "/>
<path style=" stroke:none;fill-rule:nonzero;fill:rgb(80%,80%,80%);fill-opacity:1;" d="M 133.332031 200 L 133.332031 150 L 177.777344 150 L 177.777344 200 Z M 133.332031 200 "/>
<path style=" stroke:none;fill-rule:nonzero;fill:rgb(89.803922%,89.803922%,89.803922%);fill-opacity:1;" d="M 177.777344 200 L 177.777344 150 L 222.222656 150 L 222.222656 200 Z M 177.777344 200 "/>
<path style=" stroke:none;fill-rule:nonzero;fill:rgb(80%,80%,80%);fill-opacity:1;" d="M 222.222656 200 L 222.222656 150 L 266.667969 150 L 266.667969 200 Z M 222.222656 200 "/>
<path style=" stroke:none;fill-rule:nonzero;fill:rgb(89.803922%,89.803922%,89.803922%);fill-opacity:1;" d="M 266.667969 200 L 266.667969 150 L 311.109375 150 L 311.109375 200 Z M 266.667969 200 "/>
<path style=" stroke:none;fill-rule:nonzero;fill:rgb(80%,80%,80%);fill-opacity:1;" d="M 311.109375 200 L 311.109375 150 L 355.554688 150 L 355.554688 200 Z M 311.109375 200 "/>
<path style=" stroke:none;fill-rule:nonzero;fill:rgb(89.803922%,89.803922%,89.803922%);fill-opacity:1;" d="M 355.554688 200 L 355.554688 150 L 400 150 L 400 200 Z M 355.554688 200 "/>
<path style=" stroke:none;fill-rule:nonzero;fill:rgb(80%,80%,80%);fill-opacity:1;" d="M 400 200 L 400 150 L 444.445312 150 L 444.445312 200 Z M 400 200 "/>
<path style=" stroke:none;fill-rule:nonzero;fill:rgb(89.803922%,89.803922%,89.803922%);fill-opacity:1;" d="M 444.445312 200 L 444.445312 150 L 488.890625 150 L 488.890625 200 Z M 444.445312 200 "/>
<path style=" stroke:none;fill-rule:nonzero;fill:rgb(80%,80%,80%);fill-opacity:1;" d="M 488.890625 200 L 488.890625 150 L 533.332031 150 L 533.332031 200 Z M 488.890625 200 "/>
<path style=" stroke:none;fill-rule:nonzero;fill:rgb(89.803922%,89.803922%,89.803922%);fill-opacity:1;" d="M 533.332031 200 L 533.332031 150 L 577.777344 150 L 577.777344 200 Z M 533.332031 200 "/>
<path style=" stroke:none;fill-rule:nonzero;fill:rgb(80%,80%,80%);fill-opacity:1;" d="M 577.777344 200 L 577.777344 150 L 622.222656 150 L 622.222656 200 Z M 577.777344 200 "/>
<path style=" stroke:none;fill-rule:nonzero;fill:rgb(89.803922%,89.803922%,89.803922%);fill-opacity:1;" d="M 622.222656 200 L 622.222656 150 L 666.667969 150 L 666.667969 200 Z M 622.222656 200 "/>
<path style=" stroke:none;fill-rule:nonzero;fill:rgb(80%,80%,80%);fill-opacity:1;" d="M 666.667969 200 L 666.667969 150 L 711.109375 150 L 711.109375 200 Z M 666.667969 200 "/>
<path style=" stroke:none;fill-rule:nonzero;fill:rgb(89.803922%,89.803922%,89.803922%);fill-opacity:1;" d="M 711.109375 200 L 711.109375 150 L 755.554688 150 L 755.554688 200 Z M 711.109375 200 "/>
<path style=" stroke:none;fill-rule:nonzero;fill:rgb(80%,80%,80%);fill-opacity:1;" d="M 755.554688 200 L 755.554688 150 L 800 150 L 800 200 Z M 755.554688 200 "/>
<path style=" stroke:none;fill-rule:nonzero;fill:rgb(60.55%,68.36%,82.42%);fill-opacity:1;" d="M 0 100 L 0 0 L 88.890625 0 L 88.890625 100 Z M 0 100 "/>
<path style=" stroke:none;fill-rule:nonzero;fill:rgb(31.64%,46.48%,64.06%);fill-opacity:1;" d="M 88.890625 100 L 88.890625 0 L 177.777344 0 L 177.777344 100 Z M 88.890625 100 "/>
<path style=" stroke:none;fill-rule:nonzero;fill:rgb(11.72%,26.17%,40.62%);fill-opacity:1;" d="M 177.777344 100 L 177.777344 0 L 266.667969 0 L 266.667969 100 Z M 177.777344 100 "/>
<path style=" stroke:none;fill-rule:nonzero;fill:rgb(6.64%,11.72%,17.19%);fill-opacity:1;" d="M 266.667969 100 L 266.667969 0 L 355.554688 0 L 355.554688 100 Z M 266.667969 100 "/>
<path style=" stroke:none;fill-rule:nonzero;fill:rgb(15.23%,14.45%,10.16%);fill-opacity:1;" d="M 355.554688 100 L 355.554688 0 L 444.445312 0 L 444.445312 100 Z M 355.554688 100 "/>
<path style=" stroke:none;fill-rule:nonzero;fill:rgb(33.98%,31.64%,20.31%);fill-opacity:1;" d="M 444.445312 100 L 444.445312 0 L 533.332031 0 L 533.332031 100 Z M 444.445312 100 "/>
<path style=" stroke:none;fill-rule:nonzero;fill:rgb(55.08%,51.95%,33.59%);fill-opacity:1;" d="M 533.332031 100 L 533.332031 0 L 622.222656 0 L 622.222656 100 Z M 533.332031 100 "/>
<path style=" stroke:none;fill-rule:nonzero;fill:rgb(78.52%,76.17%,56.25%);fill-opacity:1;" d="M 622.222656 100 L 622.222656 0 L 711.109375 0 L 711.109375 100 Z M 622.222656 100 "/>
<path style=" stroke:none;fill-rule:nonzero;fill:rgb(99.61%,99.61%,84.77%);fill-opacity:1;" d="M 711.109375 100 L 711.109375 0 L 800 0 L 800 100 Z M 711.109375 100 "/>
<path style=" stroke:none;fill-rule:nonzero;fill:rgb(60.55%,68.36%,82.42%);fill-opacity:0.3;" d="M 0 200 L 0 100 L 88.890625 100 L 88.890625 200 Z M 0 200 "/>
<path style=" stroke:none;fill-rule:nonzero;fill:rgb(31.64%,46.48%,64.06%);fill-opacity:0.3875;" d="M 88.890625 200 L 88.890625 100 L 177.777344 100 L 177.777344 200 Z M 88.890625 200 "/>
<path style=" stroke:none;fill-rule:nonzero;fill:rgb(11.72%,26.17%,40.62%);fill-opacity:0.475;" d="M 177.777344 200 L 177.777344 100 L 266.667969 100 L 266.667969 200 Z M 177.777344 200 "/>
<path style=" stroke:none;fill-rule:nonzero;fill:rgb(6.64%,11.72%,17.19%);fill-opacity:0.5625;" d="M 266.667969 200 L 266.667969 100 L 355.554688 100 L 355.554688 200 Z M 266.667969 200 "/>
<path style=" stroke:none;fill-rule:nonzero;fill:rgb(15.23%,14.45%,10.16%);fill-opacity:0.65;" d="M 355.554688 200 L 355.554688 100 L 444.445312 100 L 444.445312 200 Z M 355.554688 200 "/>
<path style=" stroke:none;fill-rule:nonzero;fill:rgb(33.98%,31.64%,20.31%);fill-opacity:0.7375;" d="M 444.445312 200 L 444.445312 100 L 533.332031 100 L 533.332031 200 Z M 444.445312 200 "/>
<path style=" stroke:none;fill-rule:nonzero;fill:rgb(55.08%,51.95%,33.59%);fill-opacity:0.825;" d="M 533.332031 200 L 533.332031 100 L 622.222656 100 L 622.222656 200 Z M 533.332031 200 "/>
<path style=" stroke:none;fill-rule:nonzero;fill:rgb(78.52%,76.17%,56.25%);fill-opacity:0.9125;" d="M 622.222656 200 L 622.222656 100 L 711.109375 100 L 711.109375 200 Z M 622.222656 200 "/>
<path style=" stroke:none;fill-rule:nonzero;fill:rgb(99.61%,99.61%,84.77%);fill-opacity:1;" d="M 711.109375 200 L 711.109375 100 L 800 100 L 800 200 Z M 711.109375 200 "/>
</g>
</svg>
