<?xml version="1.0" encoding="UTF-8"?>
<svg xmlns="http://www.w3.org/2000/svg" xmlns:xlink="http://www.w3.org/1999/xlink" width="800pt" height="200pt" viewBox="0 0 800 200" version="1.1">
<g id="surface61">
<rect x="0" y="0" width="800" height="200" style="fill:rgb(0%,0%,0%);fill-opacity:1;stroke:none;"/>
<path style=" stroke:none;fill-rule:nonzero;fill:rgb(80%,80%,80%);fill-opacity:1;" d="M 0 50 L 0 0 L 40 0 L 40 50 Z M 0 50 "/>
<path style=" stroke:none;fill-rule:nonzero;fill:rgb(89.803922%,89.803922%,89.803922%);fill-opacity:1;" d="M 40 50 L 40 0 L 80 0 L 80 50 Z M 40 50 "/>
<path style=" stroke:none;fill-rule:nonzero;fill:rgb(80%,80%,80%);fill-opacity:1;" d="M 80 50 L 80 0 L 120 0 L 120 50 Z M 80 50 "/>
<path style=" stroke:none;fill-rule:nonzero;fill:rgb(89.803922%,89.803922%,89.803922%);fill-opacity:1;" d="M 120 50 L 120 0 L 160 0 L 160 50 Z M 120 50 "/>
<path style=" stroke:none;fill-rule:nonzero;fill:rgb(80%,80%,80%);fill-opacity:1;" d="M 160 50 L 160 0 L 200 0 L 200 50 Z M 160 50 "/>
<path style=" stroke:none;fill-rule:nonzero;fill:rgb(89.803922%,89.803922%,89.803922%);fill-opacity:1;" d="M 200 50 L 200 0 L 240 0 L 240 50 Z M 200 50 "/>
<path style=" stroke:none;fill-rule:nonzero;fill:rgb(80%,80%,80%);fill-opacity:1;" d="M 240 50 L 240 0 L 280 0 L 280 50 Z M 240 50 "/>
<path style=" stroke:none;fill-rule:nonzero;fill:rgb(89.803922%,89.803922%,89.803922%);fill-opacity:1;" d="M 280 50 L 280 0 L 320 0 L 320 50 Z M 280 50 "/>
<path style=" stroke:none;fill-rule:nonzero;fill:rgb(80%,80%,80%);fill-opacity:1;" d="M 320 50 L 320 0 L 360 0 L 360 50 Z M 320 50 "/>
<path style=" stroke:none;fill-rule:nonzero;fill:rgb(89.803922%,89.803922%,89.803922%);fill-opacity:1;" d="M 360 50 L 360 0 L 400 0 L 400 50 Z M 360 50 "/>
<path style=" stroke:none;fill-rule:nonzero;fill:rgb(80%,80%,80%);fill-opacity:1;" d="M 400 50 L 400 0 L 440 0 L 440 50 Z M 400 50 "/>
<path style=" stroke:none;fill-rule:nonzero;fill:rgb(89.803922%,89.803922%,89.803922%);fill-opacity:1;" d="M 440 50 L 440 0 L 480 0 L 480 50 Z M 440 50 "/>
<path style=" stroke:none;fill-rule:nonzero;fill:rgb(80%,80%,80%);fill-opacity:1;" d="M 480 50 L 480 0 L 520 0 L 520 50 Z M 480 50 "/>
<path style=" stroke:none;fill-rule:nonzero;fill:rgb(89.803922%,89.803922%,89.803922%);fill-opacity:1;" d="M 520 50 L 520 0 L 560 0 L 560 50 Z M 520 50 "/>
<path style=" stroke:none;fill-rule:nonzero;fill:rgb(80%,80%,80%);fill-opacity:1;" d="M 560 50 L 560 0 L 600 0 L 600 50 Z M 560 50 "/>
<path style=" stroke:none;fill-rule:nonzero;fill:rgb(89.803922%,89.803922%,89.803922%);fill-opacity:1;" d="M 600 50 L 600 0 L 640 0 L 640 50 Z M 600 50 "/>
<path style=" stroke:none;fill-rule:nonzero;fill:rgb(80%,80%,80%);fill-opacity:1;" d="M 640 50 L 640 0 L 680 0 L 680 50 Z M 640 50 "/>
<path style=" stroke:none;fill-rule:nonzero;fill:rgb(89.803922%,89.803922%,89.803922%);fill-opacity:1;" d="M 680 50 L 680 0 L 720 0 L 720 50 Z M 680 50 "/>
<path style=" stroke:none;fill-rule:nonzero;fill:rgb(80%,80%,80%);fill-opacity:1;" d="M 720 50 L 720 0 L 760 0 L 760 50 Z M 720 50 "/>
<path style=" stroke:none;fill-rule:nonzero;fill:rgb(89.803922%,89.803922%,89.803922%);fill-opacity:1;" d="M 760 50 L 760 0 L 800 0 L 800 50 Z M 760 50 "/>
<path style=" stroke:none;fill-rule:nonzero;fill:rgb(89.803922%,89.803922%,89.803922%);fill-opacity:1;" d="M 0 100 L 0 50 L 40 50 L 40 100 Z M 0 100 "/>
<path style=" stroke:none;fill-rule:nonzero;fill:rgb(80%,80%,80%);fill-opacity:1;" d="M 40 100 L 40 50 L 80 50 L 80 100 Z M 40 100 "/>
<path style=" stroke:none;fill-rule:nonzero;fill:rgb(89.803922%,89.803922%,89.803922%);fill-opacity:1;" d="M 80 100 L 80 50 L 120 50 L 120 100 Z M 80 100 "/>
<path style=" stroke:none;fill-rule:nonzero;fill:rgb(80%,80%,80%);fill-opacity:1;" d="M 120 100 L 120 50 L 160 50 L 160 100 Z M 120 100 "/>
<path style=" stroke:none;fill-rule:nonzero;fill:rgb(89.803922%,89.803922%,89.803922%);fill-opacity:1;" d="M 160 100 L 160 50 L 200 50 L 200 100 Z M 160 100 "/>
<path style=" stroke:none;fill-rule:nonzero;fill:rgb(80%,80%,80%);fill-opacity:1;" d="M 200 100 L 200 50 L 240 50 L 240 100 Z M 200 100 "/>
<path style=" stroke:none;fill-rule:nonzero;fill:rgb(89.803922%,89.803922%,89.803922%);fill-opacity:1;" d="M 240 100 L 240 50 L 280 50 L 280 100 Z M 240 100 "/>
<path style=" stroke:none;fill-rule:nonzero;fill:rgb(80%,80%,80%);fill-opacity:1;" d="M 280 100 L 280 50 L 320 50 L 320 100 Z M 280 100 "/>
<path style=" stroke:none;fill-rule:nonzero;fill:rgb(89.803922%,89.803922%,89.803922%);fill-opacity:1;" d="M 320 100 L 320 50 L 360 50 L 360 100 Z M 320 100 "/>
<path style=" stroke:none;fill-rule:nonzero;fill:rgb(80%,80%,80%);fill-opacity:1;" d="M 360 100 L 360 50 L 400 50 L 400 100 Z M 360 100 "/>
<path style=" stroke:none;fill-rule:nonzero;fill:rgb(89.803922%,89.803922%,89.803922%);fill-opacity:1;" d="M 400 100 L 400 50 L 440 50 L 440 100 Z M 400 100 "/>
<path style=" stroke:none;fill-rule:nonzero;fill:rgb(80%,80%,80%);fill-opacity:1;" d="M 440 100 L 440 50 L 480 50 L 480 100 Z M 440 100 "/>
<path style=" stroke:none;fill-rule:nonzero;fill:rgb(89.803922%,89.803922%,89.803922%);fill-opacity:1;" d="M 480 100 L 480 50 L 520 50 L 520 100 Z M 480 100 "/>
<path style=" stroke:none;fill-rule:nonzero;fill:rgb(80%,80%,80%);fill-opacity:1;" d="M 520 100 L 520 50 L 560 50 L 560 100 Z M 520 100 "/>
<path style=" stroke:none;fill-rule:nonzero;fill:rgb(89.803922%,89.803922%,89.803922%);fill-opacity:1;" d="M 560 100 L 560 50 L 600 50 L 600 100 Z M 560 100 "/>
<path style=" stroke:none;fill-rule:nonzero;fill:rgb(80%,80%,80%);fill-opacity:1;" d="M 600 100 L 600 50 L 640 50 L 640 100 Z M 600 100 "/>
<path style=" stroke:none;fill-rule:nonzero;fill:rgb(89.803922%,89.803922%,89.803922%);fill-opacity:1;" d="M 640 100 L 640 50 L 680 50 L 680 100 Z M 640 100 "/>
<path style=" stroke:none;fill-rule:nonzero;fill:rgb(80%,80%,80%);fill-opacity:1;" d="M 680 100 L 680 50 L 720 50 L 720 100 Z M 680 100 "/>
<path style=" stroke:none;fill-rule:nonzero;fill:rgb(89.803922%,89.803922%,89.803922%);fill-opacity:1;" d="M 720 100 L 720 50 L 760 50 L 760 100 Z M 720 100 "/>
<path style=" stroke:none;fill-rule:nonzero;fill:rgb(80%,80%,80%);fill-opacity:1;" d="M 760 100 L 760 50 L 800 50 L 800 100 Z M 760 100 "/>
<path style=" stroke:none;fill-rule:nonzero;fill:rgb(80%,80%,80%);fill-opacity:1;" d="M 0 150 L 0 100 L 40 100 L 40 150 Z M 0 150 "/>
<path style=" stroke:none;fill-rule:nonzero;fill:rgb(89.803922%,89.803922%,89.803922%);fill-opacity:1;" d="M 40 150 L 40 100 L 80 100 L 80 150 Z M 40 150 "/>
<path style=" stroke:none;fill-rule:nonzero;fill:rgb(80%,80%,80%);fill-opacity:1;" d="M 80 150 L 80 100 L 120 100 L 120 150 Z M 80 150 "/>
<path style=" stroke:none;fill-rule:nonzero;fill:rgb(89.803922%,89.803922%,89.803922%);fill-opacity:1;" d="M 120 150 L 120 100 L 160 100 L 160 150 Z M 120 150 "/>
<path style=" stroke:none;fill-rule:nonzero;fill:rgb(80%,80%,80%);fill-opacity:1;" d="M 160 150 L 160 100 L 200 100 L 200 150 Z M 160 150 "/>
<path style=" stroke:none;fill-rule:nonzero;fill:rgb(89.803922%,89.803922%,89.803922%);fill-opacity:1;" d="M 200 150 L 200 100 L 240 100 L 240 150 Z M 200 150 "/>
<path style=" stroke:none;fill-rule:nonzero;fill:rgb(80%,80%,80%);fill-opacity:1;" d="M 240 150 L 240 100 L 280 100 L 280 150 Z M 240 150 "/>
<path style=" stroke:none;fill-rule:nonzero;fill:rgb(89.803922%,89.803922%,89.803922%);fill-opacity:1;" d="M 280 150 L 280 100 L 320 100 L 320 150 Z M 280 150 "/>
<path style=" stroke:none;fill-rule:nonzero;fill:rgb(80%,80%,80%);fill-opacity:1;" d="M 320 150 L 320 100 L 360 100 L 360 150 Z M 320 150 "/>
<path style=" stroke:none;fill-rule:nonzero;fill:rgb(89.803922%,89.803922%,89.803922%);fill-opacity:1;" d="M 360 150 L 360 100 L 400 100 L 400 150 Z M 360 150 "/>
<path style=" stroke:none;fill-rule:nonzero;fill:rgb(80%,80%,80%);fill-opacity:1;" d="M 400 150 L 400 100 L 440 100 L 440 150 Z M 400 150 "/>
<path style=" stroke:none;fill-rule:nonzero;fill:rgb(89.803922%,89.803922%,89.803922%);fill-opacity:1;" d="M 440 150 L 440 100 L 480 100 L 480 150 Z M 440 150 "/>
<path style=" stroke:none;fill-rule:nonzero;fill:rgb(80%,80%,80%);fill-opacity:1;" d="M 480 150 L 480 100 L 520 100 L 520 150 Z M 480 150 "/>
<path style=" stroke:none;fill-rule:nonzero;fill:rgb(89.803922%,89.803922%,89.803922%);fill-opacity:1;" d="M 520 150 L 520 100 L 560 100 L 560 150 Z M 520 150 "/>
<path style=" stroke:none;fill-rule:nonzero;fill:rgb(80%,80%,80%);fill-opacity:1;" d="M 560 150 L 560 100 L 600 100 L 600 150 Z M 560 150 "/>
<path style=" stroke:none;fill-rule:nonzero;fill:rgb(89.803922%,89.803922%,89.803922%);fill-opacity:1;" d="M 600 150 L 600 100 L 640 100 L 640 150 Z M 600 150 "/>
<path style=" stroke:none;fill-rule:nonzero;fill:rgb(80%,80%,80%);fill-opacity:1;" d="M 640 150 L 640 100 L 680 100 L 680 150 Z M 640 150 "/>
<path style=" stroke:none;fill-rule:nonzero;fill:rgb(89.803922%,89.803922%,89.803922%);fill-opacity:1;" d="M 680 150 L 680 100 L 720 100 L 720 150 Z M 680 150 "/>
<path style=" stroke:none;fill-rule:nonzero;fill:rgb(80%,80%,80%);fill-opacity:1;" d="M 720 150 L 720 100 L 760 100 L 760 150 Z M 720 150 "/>
<path style=" stroke:none;fill-rule:nonzero;fill:rgb(89.803922%,89.803922%,89.803922%);fill-opacity:1;" d="M 760 150 L 760 100 L 800 100 L 800 150 Z M 760 150 "/>
<path style=" stroke:none;fill-rule:nonzero;fill:rgb(89.803922%,89.803922%,89.803922%);fill-opacity:1;" d="M 0 200 L 0 150 L 40 150 L 40 200 Z M 0 200 "/>
<path style=" stroke:none;fill-rule:nonzero;fill:rgb(80%,80%,80%);fill-opacity:1;" d="M 40 200 L 40 150 L 80 150 L 80 200 Z M 40 200 "/>
<path style=" stroke:none;fill-rule:nonzero;fill:rgb(89.803922%,89.803922%,89.803922%);fill-opacity:1;" d="M 80 200 L 80 150 L 120 150 L 120 200 Z M 80 200 "/>
<path style=" stroke:none;fill-rule:nonzero;fill:rgb(80%,80%,80%);fill-opacity:1;" d="M 120 200 L 120 150 L 160 150 L 160 200 Z M 120 200 "/>
<path style=" stroke:none;fill-rule:nonzero;fill:rgb(89.803922%,89.803922%,89.803922%);fill-opacity:1;" d="M 160 200 L 160 150 L 200 150 L 200 200 Z M 160 200 "/>
<path style=" stroke:none;fill-rule:nonzero;fill:rgb(80%,80%,80%);fill-opacity:1;" d="M 200 200 L 200 150 L 240 150 L 240 200 Z M 200 200 "/>
<path style=" stroke:none;fill-rule:nonzero;fill:rgb(89.803922%,89.803922%,89.803922%);fill-opacity:1;" d="M 240 200 L 240 150 L 280 150 L 280 200 Z M 240 200 "/>
<path style=" stroke:none;fill-rule:nonzero;fill:rgb(80%,80%,80%);fill-opacity:1;" d="M 280 200 L 280 150 L 320 150 L 320 200 Z M 280 200 "/>
<path style=" stroke:none;fill-rule:nonzero;fill:rgb(89.803922%,89.803922%,89.803922%);fill-opacity:1;" d="M 320 200 L 320 150 L 360 150 L 360 200 Z M 320 200 "/>
<path style=" stroke:none;fill-rule:nonzero;fill:rgb(80%,80%,80%);fill-opacity:1;" d="M 360 200 L 360 150 L 400 150 L 400 200 Z M 360 200 "/>
<path style=" stroke:none;fill-rule:nonzero;fill:rgb(89.803922%,89.803922%,89.803922%);fill-opacity:1;" d="M 400 200 L 400 150 L 440 150 L 440 200 Z M 400 200 "/>
<path style=" stroke:none;fill-rule:nonzero;fill:rgb(80%,80%,80%);fill-opacity:1;" d="M 440 200 L 440 150 L 480 150 L 480 200 Z M 440 200 "/>
<path style=" stroke:none;fill-rule:nonzero;fill:rgb(89.803922%,89.803922%,89.803922%);fill-opacity:1;" d="M 480 200 L 480 150 L 520 150 L 520 200 Z M 480 200 "/>
<path style=" stroke:none;fill-rule:nonzero;fill:rgb(80%,80%,80%);fill-opacity:1;" d="M 520 200 L 520 150 L 560 150 L 560 200 Z M 520 200 "/>
<path style=" stroke:none;fill-rule:nonzero;fill:rgb(89.803922%,89.803922%,89.803922%);fill-opacity:1;" d="M 560 200 L 560 150 L 600 150 L 600 200 Z M 560 200 "/>
<path style=" stroke:none;fill-rule:nonzero;fill:rgb(80%,80%,80%);fill-opacity:1;" d="M 600 200 L 600 150 L 640 150 L 640 200 Z M 600 200 "/>
<path style=" stroke:none;fill-rule:nonzero;fill:rgb(89.803922%,89.803922%,89.803922%);fill-opacity:1;" d="M 640 200 L 640 150 L 680 150 L 680 200 Z M 640 200 "/>
<path style=" stroke:none;fill-rule:nonzero;fill:rgb(80%,80%,80%);fill-opacity:1;" d="M 680 200 L 680 150 L 720 150 L 720 200 Z M 680 200 "/>
<path style=" stroke:none;fill-rule:nonzero;fill:rgb(89.803922%,89.803922%,89.803922%);fill-opacity:1;" d="M 720 200 L 720 150 L 760 150 L 760 200 Z M 720 200 "/>
<path style=" stroke:none;fill-rule:nonzero;fill:rgb(80%,80%,80%);fill-opacity:1;" d="M 760 200 L 760 150 L 800 150 L 800 200 Z M 760 200 "/>
<path style=" stroke:none;fill-rule:nonzero;fill:rgb(25.1%,0%,29.4%);fill-opacity:1;" d="M 0 100 L 0 0 L 80 0 L 80 100 Z M 0 100 "/>
<path style=" stroke:none;fill-rule:nonzero;fill:rgb(46.3%,16.5%,51.4%);fill-opacity:1;" d="M 80 100 L 80 0 L 160 0 L 160 100 Z M 80 100 "/>
<path style=" stroke:none;fill-rule:nonzero;fill:rgb(60%,43.9%,67.1%);fill-opacity:1;" d="M 160 100 L 160 0 L 240 0 L 240 100 Z M 160 100 "/>
<path style=" stroke:none;fill-rule:nonzero;fill:rgb(76.1%,64.7%,81.2%);fill-opacity:1;" d="M 240 100 L 240 0 L 320 0 L 320 100 Z M 240 100 "/>
<path style=" stroke:none;fill-rule:nonzero;fill:rgb(90.6%,83.1%,91%);fill-opacity:1;" d="M 320 100 L 320 0 L 400 0 L 400 100 Z M 320 100 "/>
<path style=" stroke:none;fill-rule:nonzero;fill:rgb(85.1%,94.1%,82.7%);fill-opacity:1;" d="M 400 100 L 400 0 L 480 0 L 480 100 Z M 400 100 "/>
<path style=" stroke:none;fill-rule:nonzero;fill:rgb(65.1%,85.9%,62.7%);fill-opacity:1;" d="M 480 100 L 480 0 L 560 0 L 560 100 Z M 480 100 "/>
<path style=" stroke:none;fill-rule:nonzero;fill:rgb(35.3%,68.2%,38%);fill-opacity:1;" d="M 560 100 L 560 0 L 640 0 L 640 100 Z M 560 100 "/>
<path style=" stroke:none;fill-rule:nonzero;fill:rgb(10.6%,47.1%,21.6%);fill-opacity:1;" d="M 640 100 L 640 0 L 720 0 L 720 100 Z M 640 100 "/>
<path style=" stroke:none;fill-rule:nonzero;fill:rgb(0%,26.7%,10.6%);fill-opacity:1;" d="M 720 100 L 720 0 L 800 0 L 800 100 Z M 720 100 "/>
<path style=" stroke:none;fill-rule:nonzero;fill:rgb(25.1%,0%,29.4%);fill-opacity:0.8;" d="M 0 200 L 0 100 L 80 100 L 80 200 Z M 0 200 "/>
<path style=" stroke:none;fill-rule:nonzero;fill:rgb(46.3%,16.5%,51.4%);fill-opacity:0.8;" d="M 80 200 L 80 100 L 160 100 L 160 200 Z M 80 200 "/>
<path style=" stroke:none;fill-rule:nonzero;fill:rgb(60%,43.9%,67.1%);fill-opacity:0.8;" d="M 160 200 L 160 100 L 240 100 L 240 200 Z M 160 200 "/>
<path style=" stroke:none;fill-rule:nonzero;fill:rgb(76.1%,64.7%,81.2%);fill-opacity:0.8;" d="M 240 200 L 240 100 L 320 100 L 320 200 Z M 240 200 "/>
<path style=" stroke:none;fill-rule:nonzero;fill:rgb(90.6%,83.1%,91%);fill-opacity:0.8;" d="M 320 200 L 320 100 L 400 100 L 400 200 Z M 320 200 "/>
<path style=" stroke:none;fill-rule:nonzero;fill:rgb(85.1%,94.1%,82.7%);fill-opacity:0.8;" d="M 400 200 L 400 100 L 480 100 L 480 200 Z M 400 200 "/>
<path style=" stroke:none;fill-rule:nonzero;fill:rgb(65.1%,85.9%,62.7%);fill-opacity:0.8;" d="M 480 200 L 480 100 L 560 100 L 560 200 Z M 480 200 "/>
<path style=" stroke:none;fill-rule:nonzero;fill:rgb(35.3%,68.2%,38%);fill-opacity:0.8;" d="M 560 200 L 560 100 L 640 100 L 640 200 Z M 560 200 "/>
<path style=" stroke:none;fill-rule:nonzero;fill:rgb(10.6%,47.1%,21.6%);fill-opacity:0.8;" d="M 640 200 L 640 100 L 720 100 L 720 200 Z M 640 200 "/>
<path style=" stroke:none;fill-rule:nonzero;fill:rgb(0%,26.7%,10.6%);fill-opacity:0.8;" d="M 720 200 L 720 100 L 800 100 L 800 200 Z M 720 200 "/>
</g>
</svg>
